<svg width="9" height="14" viewBox="0 0 9 14" fill="none" xmlns="http://www.w3.org/2000/svg">
<path d="M0.375609 13.2002V11.8322C1.19161 11.1842 1.97161 10.5302 2.71561 9.8702C3.45961 9.2102 4.11961 8.5622 4.69561 7.9262C5.28361 7.2782 5.74561 6.6482 6.08161 6.03619C6.41761 5.41219 6.58561 4.81219 6.58561 4.23619C6.58561 3.85219 6.51961 3.49219 6.38761 3.15619C6.25561 2.80819 6.03961 2.53219 5.73961 2.32819C5.43961 2.11219 5.03761 2.00419 4.53361 2.00419C3.77761 2.00419 3.20761 2.24419 2.82361 2.7242C2.45161 3.20419 2.27161 3.78019 2.28361 4.45219H0.429609C0.441609 3.5642 0.627609 2.8202 0.987609 2.2202C1.35961 1.62019 1.85161 1.16419 2.46361 0.852194C3.08761 0.540195 3.78961 0.384195 4.56961 0.384195C5.75761 0.384195 6.70561 0.720195 7.41361 1.39219C8.13361 2.0522 8.49361 2.97619 8.49361 4.16419C8.49361 4.87219 8.31961 5.57419 7.97161 6.27019C7.63561 6.96619 7.19161 7.6382 6.63961 8.2862C6.09961 8.9222 5.51761 9.5222 4.89361 10.0862C4.26961 10.6502 3.67561 11.1602 3.11161 11.6162H8.87161V13.2002H0.375609Z" fill="#151439" fill-opacity="0.4"/>
</svg>
