<svg width="9" height="14" viewBox="0 0 9 14" fill="none" xmlns="http://www.w3.org/2000/svg">
<path d="M4.48383 13.4162C3.66783 13.4162 2.92383 13.2722 2.25183 12.9842C1.59183 12.6842 1.06383 12.2342 0.667828 11.6342C0.271828 11.0342 0.0618281 10.2842 0.0378281 9.3842H1.92783C1.95183 10.0562 2.17983 10.6262 2.61183 11.0942C3.05583 11.5502 3.67983 11.7782 4.48383 11.7782C5.25183 11.7782 5.83983 11.5682 6.24783 11.1482C6.65583 10.7162 6.85983 10.1822 6.85983 9.5462C6.85983 8.7782 6.58383 8.2082 6.03183 7.8362C5.49183 7.46419 4.82583 7.27819 4.03383 7.27819H3.09783V5.69419H4.05183C4.75983 5.69419 5.32983 5.52619 5.76183 5.19019C6.20583 4.85419 6.42783 4.38019 6.42783 3.76819C6.42783 3.25219 6.25383 2.83219 5.90583 2.50819C5.56983 2.18419 5.08983 2.02219 4.46583 2.02219C3.81783 2.02219 3.30783 2.21419 2.93583 2.59819C2.56383 2.97019 2.35983 3.43819 2.32383 4.00219H0.433828C0.457828 3.27019 0.637828 2.63419 0.973828 2.09419C1.32183 1.55419 1.79583 1.13419 2.39583 0.834195C2.99583 0.534195 3.68583 0.384195 4.46583 0.384195C5.30583 0.384195 6.00783 0.534195 6.57183 0.834195C7.14783 1.12219 7.57983 1.51819 7.86783 2.02219C8.16783 2.51419 8.31783 3.05419 8.31783 3.64219C8.31783 4.31419 8.13183 4.90219 7.75983 5.40619C7.38783 5.91019 6.88983 6.24619 6.26583 6.4142C6.98583 6.5702 7.57983 6.92419 8.04783 7.47619C8.51583 8.0162 8.74983 8.7182 8.74983 9.5822C8.74983 10.2782 8.58783 10.9202 8.26383 11.5082C7.93983 12.0842 7.45983 12.5462 6.82383 12.8942C6.18783 13.2422 5.40783 13.4162 4.48383 13.4162Z" fill="#151439" fill-opacity="0.4"/>
</svg>
