<svg xmlns="http://www.w3.org/2000/svg" width="763" height="511" viewBox="0 0 763 511" fill="none">
  <mask id="path-1-inside-1_0_518" fill="white">
    <path fill-rule="evenodd" clip-rule="evenodd" d="M2.23909 510.504C0.924521 508.977 0.297836 506.979 0.297836 504.805V25.6331C0.297836 11.8026 11.5 0.59082 25.3185 0.59082H737.113C750.931 0.59082 762.134 11.8026 762.134 25.6331V504.805C762.134 506.991 761.52 508.973 760.192 510.504"/>
  </mask>
  <path d="M3.54738 509.378C2.55339 508.223 2.024 506.651 2.024 504.805H-1.42833C-1.42833 507.306 -0.704346 509.73 0.930809 511.63L3.54738 509.378ZM2.024 504.805V25.6331H-1.42833V504.805H2.024ZM2.024 25.6331C2.024 12.7546 12.4547 2.31698 25.3185 2.31698V-1.13534C10.5452 -1.13534 -1.42833 10.8507 -1.42833 25.6331H2.024ZM25.3185 2.31698H737.113V-1.13534H25.3185V2.31698ZM737.113 2.31698C749.977 2.31698 760.407 12.7546 760.407 25.6331H763.86C763.86 10.8507 751.886 -1.13534 737.113 -1.13534V2.31698ZM760.407 25.6331V504.805H763.86V25.6331H760.407ZM760.407 504.805C760.407 506.669 759.888 508.22 758.888 509.373L761.496 511.635C763.152 509.726 763.86 507.313 763.86 504.805H760.407Z" fill="#1B1B1B" mask="url(#path-1-inside-1_0_518)"/>
</svg>